<svg width="32" height="32" viewBox="0 0 32 32" fill="none" xmlns="http://www.w3.org/2000/svg">
    <g clip-path="url(#clip0_347_145)">
        <path
            d="M6.4 3.2C4.635 3.2 3.2 4.635 3.2 6.4V17.6H0.96C0.43 17.6 0 18.03 0 18.56C0 20.68 1.72 22.4 3.84 22.4H16V17.6H6.4V6.4H22.4V8H25.6V6.4C25.6 4.635 24.165 3.2 22.4 3.2H6.4ZM25.6 9.6H20C18.675 9.6 17.6 10.675 17.6 12V26.4C17.6 27.725 18.675 28.8 20 28.8H29.6C30.925 28.8 32 27.725 32 26.4V16H27.2C26.315 16 25.6 15.285 25.6 14.4V9.6ZM27.2 9.6V14.4H32L27.2 9.6Z"
            fill="rgb(156, 163, 175)" />
    </g>
    <defs>
        <clipPath id="clip0_347_145">
            <rect width="32" height="32" fill="rgb(156, 163, 175)" />
        </clipPath>
    </defs>
</svg>